<?xml version="1.0"?>
<svg xmlns="http://www.w3.org/2000/svg" viewBox="0 0 64 64" width="512" height="512"><g id="Businessman-Accounting-Calculator-Worker-Occupation"><path d="M55,34H41a3,3,0,0,0-3,3V59a3,3,0,0,0,3,3H55a3,3,0,0,0,3-3V37A3,3,0,0,0,55,34Zm1,25a1,1,0,0,1-1,1H41a1,1,0,0,1-1-1V37a1,1,0,0,1,1-1H55a1,1,0,0,1,1,1Z"/><path d="M53,46H43a1,1,0,0,0-1,1V57a1,1,0,0,0,1,1H53a1,1,0,0,0,1-1V47A1,1,0,0,0,53,46Zm-1,5H49V48h3Zm-5-3v3H44V48Zm-3,5h3v3H44Zm5,3V53h3v3Z"/><path d="M53,38H43a1,1,0,0,0-1,1v4a1,1,0,0,0,1,1H53a1,1,0,0,0,1-1V39A1,1,0,0,0,53,38Zm-1,4H44V40h8Z"/><rect x="22" y="19" width="2" height="2"/><rect x="30" y="19" width="2" height="2"/><path d="M32,24H30a3,3,0,0,1-6,0H22a5,5,0,0,0,10,0Z"/><path d="M31.293,42.707A1,1,0,0,0,32,43a.968.968,0,0,0,.16-.013,1,1,0,0,0,.735-.54l2.386-4.773.367.138.7-1.874L32,34.307V32.786a11.006,11.006,0,0,0,5.957-8.941,4,4,0,1,0,.4-7.785l1.352-1.353A1,1,0,0,0,40,14V9a7.008,7.008,0,0,0-7-7H11a1,1,0,0,0-.832,1.555l3.607,5.411L11.2,12.4a1,1,0,0,0,.285,1.457l3.582,2.149c-.023,0-.045-.006-.067-.006a4,4,0,1,0,1.043,7.845A11.006,11.006,0,0,0,22,32.786v1.521l-7.565,2.837A13.06,13.06,0,0,0,6,49.316V61a1,1,0,0,0,1,1H36V60H16V47H14V60H8V49.316a11.048,11.048,0,0,1,7.138-10.3l3.581-1.343,2.386,4.773a1,1,0,0,0,.735.54A.968.968,0,0,0,22,43a1,1,0,0,0,.707-.293l.217-.217,2.6,6.51H23a1,1,0,0,0-1,1v6a1,1,0,0,0,1,1h8a1,1,0,0,0,1-1V50a1,1,0,0,0-1-1H28.476l2.6-6.51ZM30,55H24V51h2v1h2V51h2Zm3.4-18.032-1.672,3.344-2.757-2.756,2.159-1.44ZM41,20a2,2,0,0,1-2,2,1.982,1.982,0,0,1-1-.274V18.274A1.982,1.982,0,0,1,39,18,2,2,0,0,1,41,20ZM15.8,9.6a1,1,0,0,0,.032-1.155L12.868,4H33a5.006,5.006,0,0,1,5,5v4.586L36.586,15H35.472a2.983,2.983,0,0,1-2.683-1.658L31.9,11.553a1,1,0,0,0-.68-.53A1.048,1.048,0,0,0,31,11a1,1,0,0,0-.625.219l-2.261,1.809A9.039,9.039,0,0,1,22.492,15H17.277l-3.812-2.287ZM13,20a2,2,0,0,1,2-2,1.982,1.982,0,0,1,1,.274v3.452A1.982,1.982,0,0,1,15,22,2,2,0,0,1,13,20Zm5,3V17h4.492a11.038,11.038,0,0,0,6.872-2.411l1.295-1.035.341.682A4.973,4.973,0,0,0,35.472,17H36v6a9,9,0,0,1-18,0Zm9,11a10.966,10.966,0,0,0,3-.426v.891L27.7,36H26.3L24,34.465v-.891A10.966,10.966,0,0,0,27,34Zm-6.4,2.968,2.27-.852,2.159,1.44-2.757,2.756ZM27,47.3l-2.537-6.353L27,38.414l2.537,2.537Z"/></g></svg>
