<svg id="icons" enable-background="new 0 0 64 64" height="512" viewBox="0 0 64 64" width="512" xmlns="http://www.w3.org/2000/svg"><path d="m28.498 29.056v-18.046c0-.004.002-.006.002-.01 0-6.065-4.935-11-11-11s-11 4.935-11 11c0 .004.002.006.002.01v18.046c-1.14.232-2 1.241-2 2.449 0 1.379 1.121 2.5 2.5 2.5.002 0 .003-.001.005-.001h4.495v28.996c0 .553.447 1 1 1s1-.447 1-1v-28.996h7.996v28.996c0 .553.447 1 1 1s1-.447 1-1v-28.996h4.495c.002 0 .003.001.005.001 1.379 0 2.5-1.121 2.5-2.5 0-1.208-.86-2.217-2-2.449zm-.5 2.948h-20.996c-.001 0-.002 0-.002 0-.274-.001-.498-.225-.498-.499 0-.275.225-.5.5-.5h20.996c.275 0 .5.225.5.5 0 .274-.224.498-.498.499 0 0-.001 0-.002 0zm-10.498-11.539-3.997 2.666v-5.131h3.997zm3 4.07.999-.666v5.136h-.999zm-3-22.535c4.96 0 8.994 4.032 9 8.99 0 .003-.002.005-.002.008v18.007h-2.999v-13.005c0-.553-.447-1-1-1s-1 .447-1 1v5.466l-2.554 1.702c-.027.019-.042.047-.066.066-.055.045-.102.092-.145.146-.041.05-.075.099-.104.154s-.052.111-.07.172c-.021.067-.034.132-.041.201-.003.032-.019.06-.019.093v5.005h-4.997v-3.47l5.552-3.703c.027-.019.042-.047.066-.066.055-.045.102-.092.146-.146.04-.049.074-.098.104-.153s.052-.111.071-.173c.021-.066.033-.131.04-.2.002-.033.018-.061.018-.094v-4c0-.553-.447-1-1-1h-4.997c0-.553-.447-1-1-1s-1 .447-1 1v13.005h-3.001v-18.007c0-.003-.002-.005-.002-.008.006-4.958 4.04-8.99 9-8.99z"/><path d="m57.499 29.056v-18.046c0-.004.002-.006.002-.01 0-6.065-4.935-11-11-11s-11 4.935-11 11c0 .004.002.006.002.01v18.046c-1.14.232-2 1.241-2 2.449 0 1.379 1.121 2.5 2.5 2.5.002 0 .003-.001.005-.001h4.495v28.996c0 .553.447 1 1 1s1-.447 1-1v-28.996h7.996v28.996c0 .553.447 1 1 1s1-.447 1-1v-28.996h4.495c.002 0 .003.001.005.001 1.379 0 2.5-1.121 2.5-2.5 0-1.208-.86-2.217-2-2.449zm-.5 2.948h-20.996c-.001 0-.002 0-.003 0-.273-.001-.497-.225-.497-.499 0-.275.225-.5.5-.5h20.996c.275 0 .5.225.5.5 0 .274-.224.498-.497.499-.001 0-.002 0-.003 0zm-14.497-8.135.999.666v4.47h-.999zm3.999-5.869h3.997v5.131l-3.997-2.666zm0-16c4.96 0 8.994 4.032 8.999 8.99 0 .003-.001.005-.001.008v18.007h-3.001v-13.005c0-.553-.447-1-1-1s-1 .447-1 1h-4.997c-.553 0-1 .447-1 1v4c0 .033.016.061.019.093.007.069.02.134.041.2.019.062.041.117.07.173s.063.104.104.154c.044.054.091.101.146.146.024.02.039.048.066.066l5.552 3.703v3.47h-4.997v-5.005c0-.033-.016-.061-.019-.093-.007-.069-.02-.134-.041-.201-.019-.061-.041-.116-.07-.172s-.063-.104-.104-.154c-.044-.054-.091-.102-.146-.146-.024-.02-.039-.048-.066-.066l-2.554-1.702v-5.466c0-.553-.447-1-1-1s-1 .447-1 1v13.005h-2.999v-18.007c0-.003-.001-.005-.001-.008.005-4.958 4.039-8.99 8.999-8.99z"/></svg>