<?xml version="1.0" encoding="iso-8859-1"?>
<!-- Generator: Adobe Illustrator 19.0.0, SVG Export Plug-In . SVG Version: 6.00 Build 0)  -->
<svg version="1.1" id="Capa_1" xmlns="http://www.w3.org/2000/svg" xmlns:xlink="http://www.w3.org/1999/xlink" x="0px" y="0px"
	 viewBox="0 0 512 512" style="enable-background:new 0 0 512 512;" xml:space="preserve">
<g>
	<g>
		<path d="M437.02,74.98C388.668,26.629,324.38,0,256,0S123.332,26.629,74.98,74.98C26.628,123.331,0,187.62,0,256
			s26.629,132.668,74.98,181.02C123.331,485.372,187.62,512,256,512s132.668-26.629,181.02-74.98
			C485.372,388.669,512,324.38,512,256S485.371,123.332,437.02,74.98z M256,497C123.112,497,15,388.888,15,256S123.112,15,256,15
			s241,108.112,241,241S388.888,497,256,497z"/>
	</g>
</g>
<g>
	<g>
		<path d="M411.922,137.229c-25.374-33.258-61.363-57.946-101.337-69.516c-2.261-0.653-4.704-0.209-6.591,1.209
			c-1.885,1.417-2.994,3.637-2.994,5.995v47.492c0,3.083,1.886,5.852,4.755,6.979C358.146,149.994,392,199.692,392,256
			c0,74.99-61.01,136-136,136s-136-61.01-136-136c0-56.308,33.854-106.006,86.245-126.611c2.869-1.128,4.755-3.896,4.755-6.979
			V74.917c0-2.358-1.109-4.578-2.994-5.995c-1.885-1.418-4.328-1.862-6.591-1.209c-39.974,11.569-75.963,36.258-101.337,69.516
			C73.858,171.595,60,212.665,60,256c0,46.574,16.63,91.721,46.826,127.122c2.688,3.15,7.421,3.529,10.573,0.839
			c3.151-2.688,3.527-7.422,0.839-10.573C90.355,340.698,75,299.009,75,256c0-76.749,49.274-145.589,121-170.81v32.202
			c-25.864,11.195-47.964,29.307-64.144,52.624C114.287,195.338,105,225.07,105,256c0,83.262,67.738,151,151,151s151-67.738,151-151
			c0-30.93-9.287-60.662-26.856-85.983c-16.18-23.317-38.279-41.429-64.144-52.624V85.19c71.726,25.221,121,94.061,121,170.81
			c0,99.804-81.196,181-181,181c-43.009,0-84.698-15.355-117.388-43.238c-3.152-2.689-7.887-2.313-10.573,0.839
			c-2.688,3.151-2.313,7.886,0.839,10.573C164.279,435.37,209.426,452,256,452c108.075,0,196-87.925,196-196
			C452,212.665,438.142,171.595,411.922,137.229z"/>
	</g>
</g>
<g>
	<g>
		<path d="M279.385,61.395C271.601,60.469,263.733,60,256,60c-7.733,0-15.601,0.469-23.385,1.395
			c-3.773,0.448-6.615,3.647-6.615,7.447V256c0,4.143,3.357,7.5,7.5,7.5h45c4.143,0,7.5-3.357,7.5-7.5V68.842
			C286,65.042,283.158,61.843,279.385,61.395z M271,248.5h-30V75.623c10.033-0.828,19.967-0.828,30,0V248.5z"/>
	</g>
</g>
<g>
</g>
<g>
</g>
<g>
</g>
<g>
</g>
<g>
</g>
<g>
</g>
<g>
</g>
<g>
</g>
<g>
</g>
<g>
</g>
<g>
</g>
<g>
</g>
<g>
</g>
<g>
</g>
<g>
</g>
</svg>
