<svg height="512" viewBox="0 0 512 512" width="512" xmlns="http://www.w3.org/2000/svg"><g id="outline"><path d="m495.149 92.425h.006l-16-32a8 8 0 0 0 -7.155-4.425h-128a8 8 0 0 0 -7.155 4.422l-16 32h.006a7.949 7.949 0 0 0 -.851 3.578v48h-104a8 8 0 0 0 -8 8v32a8 8 0 0 0 8 8h61.584l-50.073 33.948a8 8 0 0 0 -2.454 10.6l15.889 27.769a8 8 0 0 0 11.433 2.649l67.621-45.847v226.881a8 8 0 0 0 8 8h160a8 8 0 0 0 8-8v-352a7.949 7.949 0 0 0 -.851-3.575zm-15.149 219.575h-144v-144h144zm-144-160v-48h144v48zm12.944-80h118.112l8 16h-134.112zm-124.944 88h96v16h-96zm26.546 88.874-7.921-13.843 63.475-43.031h13.9v9.788zm85.454 79.126h16v112h-16zm32 112v-112h80v112zm96 0v-112h16v112z"/><path d="m360 120h96v16h-96z"/><path d="m408 296.974a56.474 56.474 0 1 0 -39.952-16.522 56.325 56.325 0 0 0 39.952 16.522zm-28.638-85.112a40.5 40.5 0 1 1 0 57.276 40.546 40.546 0 0 1 0-57.276z"/><path d="m402.343 268.784 11.314-11.314-8.97-8.97h25.94v-16h-25.94l8.97-8.97-11.314-11.314-22.627 22.627a8 8 0 0 0 0 11.314z"/><path d="m56 120h96v16h-96z"/><path d="m104 296.974a56.474 56.474 0 1 0 -39.952-16.522 56.325 56.325 0 0 0 39.952 16.522zm-28.638-85.112a40.5 40.5 0 1 1 0 57.276 40.546 40.546 0 0 1 0-57.276z"/><path d="m191.155 92.422-16-32a8 8 0 0 0 -7.155-4.422h-128a8 8 0 0 0 -7.155 4.422l-16 32h.006a7.949 7.949 0 0 0 -.851 3.578v352a8 8 0 0 0 8 8h160a8 8 0 0 0 8-8v-352a7.949 7.949 0 0 0 -.851-3.575zm-146.211-20.422h118.112l8 16h-134.112zm131.056 80h-144v-48h144zm0 160h-144v-144h144zm-144 16h16v112h-16zm32 112v-112h80v112zm96 0v-112h16v112z"/><path d="m87.029 268.284 16.971-16.97 16.971 16.97 11.313-11.314-16.97-16.97 16.97-16.97-11.313-11.314-16.971 16.97-16.971-16.97-11.313 11.314 16.97 16.97-16.97 16.97z"/></g></svg>